# xmcd
#
# Track frame offsets: 
#        150
#        8873
#        19992
#        33726
#        43496
#        50993
#        60497
#        73307
#        81735
#        92193
#        101609
#        114116
#
# Disc length: 1642 seconds
#
# Revision: 0
# Processed by: cddbd v1.5.2PL0 Copyright (c) Steve Scherf et al.
# Submitted via: ExactAudioCopy v0.99pb5
#
DISCID=b106680c
DTITLE=Elvis Presley - I Got Lucky
DYEAR=1971
DGENRE=A Cappella
TTITLE0=I Got Lucky
TTITLE1=What A Wonderful Life
TTITLE2=I Need Somebody To Lean On
TTITLE3=Yoga Is As Yoga Does
TTITLE4=Riding The Rainbow
TTITLE5=Fools Fall In Love
TTITLE6=The Love Machine
TTITLE7=Home Is Where The Heart Is
TTITLE8=You Gotta Stop
TTITLE9=If You Think I Don?t Need You
TTITLE10=You?re The Boss
TTITLE11=Come What May
EXTD=
EXTT0=
EXTT1=
EXTT2=
EXTT3=
EXTT4=
EXTT5=
EXTT6=
EXTT7=
EXTT8=
EXTT9=
EXTT10=
EXTT11=
PLAYORDER=
